<svg width="30" height="30" viewBox="0 0 30 30" fill="none" xmlns="http://www.w3.org/2000/svg">
<g clip-path="url(#clip0_12562_55184)">
<path fill-rule="evenodd" clip-rule="evenodd" d="M15 30C23.2843 30 30 23.2843 30 15C30 6.71573 23.2843 0 15 0C6.71573 0 0 6.71573 0 15C0 23.2843 6.71573 30 15 30Z" fill="#355F92"/>
<path d="M12.2929 21.7071C11.9024 21.3166 11.9024 20.6834 12.2929 20.2929L17.5858 15L12.2929 9.70711C11.9024 9.31658 11.9024 8.68342 12.2929 8.29289C12.6834 7.90237 13.3166 7.90237 13.7071 8.29289L19.7071 14.2929C20.0976 14.6834 20.0976 15.3166 19.7071 15.7071L13.7071 21.7071C13.3166 22.0976 12.6834 22.0976 12.2929 21.7071Z" fill="white"/>
</g>
<defs>
<clipPath id="clip0_12562_55184">
<rect width="30" height="30" fill="white"/>
</clipPath>
</defs>
</svg>
