<svg width="30" height="30" viewBox="0 0 30 30" fill="none" xmlns="http://www.w3.org/2000/svg">
<g clip-path="url(#clip0_12562_55188)">
<path fill-rule="evenodd" clip-rule="evenodd" d="M15 30C23.2843 30 30 23.2843 30 15C30 6.71573 23.2843 0 15 0C6.71573 0 0 6.71573 0 15C0 23.2843 6.71573 30 15 30Z" fill="#355F92"/>
<path d="M17.7071 8.29289C18.0976 8.68342 18.0976 9.31658 17.7071 9.70711L12.4142 15L17.7071 20.2929C18.0976 20.6834 18.0976 21.3166 17.7071 21.7071C17.3166 22.0976 16.6834 22.0976 16.2929 21.7071L10.2929 15.7071C9.90237 15.3166 9.90237 14.6834 10.2929 14.2929L16.2929 8.29289C16.6834 7.90237 17.3166 7.90237 17.7071 8.29289Z" fill="white"/>
</g>
<defs>
<clipPath id="clip0_12562_55188">
<rect width="30" height="30" fill="white"/>
</clipPath>
</defs>
</svg>
